HIERARCHY
ROOT root
{
	OFFSET	0	13.1	24.9
	CHANNELS 6  Xposition Yposition Zposition Xrotation Yrotation Zrotation
	JOINT spine_1
	{
		OFFSET	0	9.99999	0
		CHANNELS 3  Xrotation Yrotation Zrotation
		JOINT spine_2
		{
			OFFSET	0	112	-10
			CHANNELS 3  Xrotation Yrotation Zrotation
			JOINT spine_3
			{
				OFFSET	0	206.5	19.3
				CHANNELS 3  Xrotation Yrotation Zrotation
				JOINT spine_4
				{
					OFFSET	0	110.4	14.6
					CHANNELS 3  Xrotation Yrotation Zrotation
					JOINT neck_1
					{
						OFFSET	0	71.8	-50.3
						CHANNELS 3  Xrotation Yrotation Zrotation
						JOINT neck_2
						{
							OFFSET	0	86.2	-25.8
							CHANNELS 3  Xrotation Yrotation Zrotation
							JOINT head_ee
							{
								OFFSET	0	179.8	-8.7
								CHANNELS 3  Xrotation Yrotation Zrotation
								End Site
								{
									OFFSET	1	0	0
								}
							}
						}
					}
					JOINT left_clavicle
					{
						OFFSET	-43.2	22.4	-70.8
						CHANNELS 3  Xrotation Yrotation Zrotation
						JOINT left_shoulder
						{
							OFFSET	-93.9	-5.79999	48.7
							CHANNELS 3  Xrotation Yrotation Zrotation
							JOINT left_elbow
							{
								OFFSET	-291.4	-30.8	15.2
								CHANNELS 3  Xrotation Yrotation Zrotation
								JOINT left_lowarm_twist
								{
									OFFSET	-110.7	-3.89999	13.6
									CHANNELS 3  Xrotation Yrotation Zrotation
									JOINT left_hand
									{
										OFFSET	-110.7	-3.89999	13.6
										CHANNELS 3  Xrotation Yrotation Zrotation
										JOINT left_ee
										{
											OFFSET	-80.8	-5.10001	12.1
											CHANNELS 3  Xrotation Yrotation Zrotation
											End Site
											{
												OFFSET	1	0	0
											}
										}
									}
								}
							}
						}
					}
					JOINT right_clavicle
					{
						OFFSET	43.2	22.4	-70.8
						CHANNELS 3  Xrotation Yrotation Zrotation
						JOINT right_shoulder
						{
							OFFSET	93.9	-5.79999	48.7
							CHANNELS 3  Xrotation Yrotation Zrotation
							JOINT right_elbow
							{
								OFFSET	291.4	-30.8	15.2
								CHANNELS 3  Xrotation Yrotation Zrotation
								JOINT right_lowarm_twist
								{
									OFFSET	110.7	-3.89999	13.6
									CHANNELS 3  Xrotation Yrotation Zrotation
									JOINT right_hand
									{
										OFFSET	110.7	-3.89999	13.6
										CHANNELS 3  Xrotation Yrotation Zrotation
										JOINT right_ee
										{
											OFFSET	80.8	-5.10001	12.1
											CHANNELS 3  Xrotation Yrotation Zrotation
											End Site
											{
												OFFSET	1	0	0
											}
										}
									}
								}
							}
						}
					}
				}
			}
		}
	}
	JOINT left_hip
	{
		OFFSET	-82.8	-127.5	0.300001
		CHANNELS 3  Xrotation Yrotation Zrotation
		JOINT left_knee
		{
			OFFSET	-28.2	-396.7	2.2
			CHANNELS 3  Xrotation Yrotation Zrotation
			JOINT left_ankle
			{
				OFFSET	-11.7	-411.3	35.4
				CHANNELS 3  Xrotation Yrotation Zrotation
				JOINT left_toes
				{
					OFFSET	0	-60	-88.6
					CHANNELS 3  Xrotation Yrotation Zrotation
					JOINT left_foot_ee
					{
						OFFSET	-22.5	-16.5	-42.2
						CHANNELS 3  Xrotation Yrotation Zrotation
						End Site
						{
							OFFSET	1	0	0
						}
					}
				}
			}
		}
	}
	JOINT right_hip
	{
		OFFSET	82.8	-127.5	0.300001
		CHANNELS 3  Xrotation Yrotation Zrotation
		JOINT right_knee
		{
			OFFSET	28.2	-396.7	2.2
			CHANNELS 3  Xrotation Yrotation Zrotation
			JOINT right_ankle
			{
				OFFSET	11.7	-411.3	35.4
				CHANNELS 3  Xrotation Yrotation Zrotation
				JOINT right_toes
				{
					OFFSET	0	-60	-88.6
					CHANNELS 3  Xrotation Yrotation Zrotation
					JOINT right_foot_ee
					{
						OFFSET	22.5	-16.5	-42.2
						CHANNELS 3  Xrotation Yrotation Zrotation
						End Site
						{
							OFFSET	1	0	0
						}
					}
				}
			}
		}
	}
}
MOTION
Frames: 13
Frame Time: 0.02
1041.4 574.639 -1682.42 -42.4030843665 51.892248659 45.8205245696 10.7261 -0.435463 -2.54987 10.7297 -0.272381 -2.57239 10.733 -0.209701 -2.57825 10.7243 -0.614127 -2.51285 -15.4232 -17.3381 3.76676 -16.7428 -35.3552 -2.91736 -0.0 0.0 -0.0 10.6367 -6.83216 21.2235 -39.1073 8.07544 64.5893 0.189416 -5.36057 0.00886738 85.1354 -4.44274 -8.87236 -3.25931 17.6512 -12.7197 -0.0 0.0 -0.0 2.12616 -24.0207 -5.65414 64.5055 -57.9637 -33.1222 0.497286 13.8389 -0.0603501 85.5375 4.491 8.89061 -6.57784 -30.2209 23.9024 0.0 0.0 0.0 55.6478 -37.1674 3.27919 -6.67694 0.216766 1.00121 5.99299 12.1887 -0.865139 37.6138 -0.0 -0.0 -0.0 0.0 -0.0 6.30559 -27.1518 -21.6441 -2.60905 -0.0985973 -0.38823 39.613 13.0157 5.07104 5.60615 -0.0 -0.0 0.0 0.0 0.0 
1041.4 574.639 -1682.42 -42.8533654804 52.2733118679 46.3912908806 10.7261 -0.435463 -2.54987 10.7297 -0.272381 -2.57239 10.733 -0.209701 -2.57825 10.7243 -0.614127 -2.51285 -15.4232 -17.3381 3.76676 -16.7428 -35.3552 -2.91736 -0.0 0.0 -0.0 10.6367 -6.83216 21.2235 -39.1073 8.07544 64.5893 0.189416 -5.36057 0.00886738 85.1354 -4.44274 -8.87236 -3.25931 17.6512 -12.7197 -0.0 0.0 -0.0 2.12616 -24.0207 -5.65414 64.5055 -57.9637 -33.1222 0.497286 13.8389 -0.0603501 85.5375 4.491 8.89061 -6.57784 -30.2209 23.9024 0.0 0.0 0.0 55.6478 -37.1674 3.27919 -6.67694 0.216766 1.00121 5.99299 12.1887 -0.865139 37.6138 -0.0 -0.0 -0.0 0.0 -0.0 6.30559 -27.1518 -21.6441 -2.60905 -0.0985973 -0.38823 39.613 13.0157 5.07104 5.60615 -0.0 -0.0 0.0 0.0 0.0 
1041.4 574.639 -1682.42 -43.6142997094 52.8924958584 47.3493425308 10.7261 -0.435463 -2.54987 10.7297 -0.272381 -2.57239 10.733 -0.209701 -2.57825 10.7243 -0.614127 -2.51285 -15.4232 -17.3381 3.76676 -16.7428 -35.3552 -2.91736 -0.0 0.0 -0.0 10.6367 -6.83216 21.2235 -39.1073 8.07544 64.5893 0.189416 -5.36057 0.00886738 85.1354 -4.44274 -8.87236 -3.25931 17.6512 -12.7197 -0.0 0.0 -0.0 2.12616 -24.0207 -5.65414 64.5055 -57.9637 -33.1222 0.497286 13.8389 -0.0603501 85.5375 4.491 8.89061 -6.57784 -30.2209 23.9024 0.0 0.0 0.0 55.6478 -37.1674 3.27919 -6.67694 0.216766 1.00121 5.99299 12.1887 -0.865139 37.6138 -0.0 -0.0 -0.0 0.0 -0.0 6.30559 -27.1518 -21.6441 -2.60905 -0.0985973 -0.38823 39.613 13.0157 5.07104 5.60615 -0.0 -0.0 0.0 0.0 0.0 
1041.4 574.639 -1682.42 -43.8484340921 53.0770222999 47.6425687153 10.7261 -0.435463 -2.54987 10.7297 -0.272381 -2.57239 10.733 -0.209701 -2.57825 10.7243 -0.614127 -2.51285 -15.4232 -17.3381 3.76676 -16.7428 -35.3552 -2.91736 -0.0 0.0 -0.0 10.6367 -6.83216 21.2235 -39.1073 8.07544 64.5893 0.189416 -5.36057 0.00886738 85.1354 -4.44274 -8.87236 -3.25931 17.6512 -12.7197 -0.0 0.0 -0.0 2.12616 -24.0207 -5.65414 64.5055 -57.9637 -33.1222 0.497286 13.8389 -0.0603501 85.5375 4.491 8.89061 -6.57784 -30.2209 23.9024 0.0 0.0 0.0 55.6478 -37.1674 3.27919 -6.67694 0.216766 1.00121 5.99299 12.1887 -0.865139 37.6138 -0.0 -0.0 -0.0 0.0 -0.0 6.30559 -27.1518 -21.6441 -2.60905 -0.0985973 -0.38823 39.613 13.0157 5.07104 5.60615 -0.0 -0.0 0.0 0.0 0.0 
1041.4 574.639 -1682.42 -44.5204533409 53.591754075 48.4803440041 10.7261 -0.435463 -2.54987 10.7297 -0.272381 -2.57239 10.733 -0.209701 -2.57825 10.7243 -0.614127 -2.51285 -15.4232 -17.3381 3.76676 -16.7428 -35.3552 -2.91736 -0.0 0.0 -0.0 10.6367 -6.83216 21.2235 -39.1073 8.07544 64.5893 0.189416 -5.36057 0.00886738 85.1354 -4.44274 -8.87236 -3.25931 17.6512 -12.7197 -0.0 0.0 -0.0 2.12616 -24.0207 -5.65414 64.5055 -57.9637 -33.1222 0.497286 13.8389 -0.0603501 85.5375 4.491 8.89061 -6.57784 -30.2209 23.9024 0.0 0.0 0.0 55.6478 -37.1674 3.27919 -6.67694 0.216766 1.00121 5.99299 12.1887 -0.865139 37.6138 -0.0 -0.0 -0.0 0.0 -0.0 6.30559 -27.1518 -21.6441 -2.60905 -0.0985973 -0.38823 39.613 13.0157 5.07104 5.60615 -0.0 -0.0 0.0 0.0 0.0 
1041.4 574.639 -1682.42 -45.046825494 53.9801220042 49.1327450195 10.7261 -0.435463 -2.54987 10.7297 -0.272381 -2.57239 10.733 -0.209701 -2.57825 10.7243 -0.614127 -2.51285 -15.4232 -17.3381 3.76676 -16.7428 -35.3552 -2.91736 -0.0 0.0 -0.0 10.6367 -6.83216 21.2235 -39.1073 8.07544 64.5893 0.189416 -5.36057 0.00886738 85.1354 -4.44274 -8.87236 -3.25931 17.6512 -12.7197 -0.0 0.0 -0.0 2.12616 -24.0207 -5.65414 64.5055 -57.9637 -33.1222 0.497286 13.8389 -0.0603501 85.5375 4.491 8.89061 -6.57784 -30.2209 23.9024 0.0 0.0 0.0 55.6478 -37.1674 3.27919 -6.67694 0.216766 1.00121 5.99299 12.1887 -0.865139 37.6138 -0.0 -0.0 -0.0 0.0 -0.0 6.30559 -27.1518 -21.6441 -2.60905 -0.0985973 -0.38823 39.613 13.0157 5.07104 5.60615 -0.0 -0.0 0.0 0.0 0.0 
1041.4 574.639 -1682.42 -45.935348852 54.607883746 50.2269276189 10.7261 -0.435463 -2.54987 10.7297 -0.272381 -2.57239 10.733 -0.209701 -2.57825 10.7243 -0.614127 -2.51285 -15.4232 -17.3381 3.76676 -16.7428 -35.3552 -2.91736 -0.0 0.0 -0.0 10.6367 -6.83216 21.2235 -39.1073 8.07544 64.5893 0.189416 -5.36057 0.00886738 85.1354 -4.44274 -8.87236 -3.25931 17.6512 -12.7197 -0.0 0.0 -0.0 2.12616 -24.0207 -5.65414 64.5055 -57.9637 -33.1222 0.497286 13.8389 -0.0603501 85.5375 4.491 8.89061 -6.57784 -30.2209 23.9024 0.0 0.0 0.0 55.6478 -37.1674 3.27919 -6.67694 0.216766 1.00121 5.99299 12.1887 -0.865139 37.6138 -0.0 -0.0 -0.0 0.0 -0.0 6.30559 -27.1518 -21.6441 -2.60905 -0.0985973 -0.38823 39.613 13.0157 5.07104 5.60615 -0.0 -0.0 0.0 0.0 0.0 
1026.99234812 565.425 -1697.97057518 -37.3942085242 55.7865151592 43.5164545194 9.59735 -0.587568 -2.49455 9.60071 -0.427694 -2.52685 9.6121 -0.316502 -2.54316 9.60379 -0.714055 -2.46135 -19.6851 -16.0635 1.3965 -21.2849 -31.6291 -5.93394 -0.0 0.0 -0.0 10.5396 -8.31443 21.0232 -37.6286 -4.70452 62.9112 3.25383 -58.1712 1.81033 16.1784 0.283654 -2.04033 5.15717 -4.10359 35.1662 -0.0 0.0 -0.0 2.44006 -15.9024 -5.72327 30.7527 -38.5259 -56.2283 0.59999 16.553 -0.0872787 76.4812 3.43915 8.3991 2.56243 -30.5554 -26.3996 0.0 0.0 0.0 52.5372 -28.5835 0.616848 -15.4072 0.322059 2.33536 21.5534 7.68258 -2.92162 -12.3778 0.0 0.0 -0.0 0.0 -0.0 2.83645 -17.8269 -22.6982 -3.83815 -0.13889 -0.572553 39.7505 10.973 5.02856 6.03749 -0.0 -0.0 0.0 0.0 0.0 
1013.33989055 563.111 -1709.47156163 -36.0331250332 55.1457167221 42.2157809582 9.29204 -0.780773 -2.46166 9.29519 -0.6226 -2.50631 9.31549 -0.499192 -2.53377 9.30764 -0.892972 -2.42324 -23.417 -17.438 4.33987 -26.1255 -35.4577 -5.42274 -0.0 0.0 -0.0 10.0187 -7.96031 19.8876 -37.0702 -2.12586 64.7909 3.50257 -60.0284 2.02378 14.3327 0.280579 -1.80462 4.05823 5.41563 30.3902 -0.0 0.0 -0.0 1.91037 -15.8895 -4.88384 30.0725 -41.6345 -58.2812 0.705766 19.2705 -0.119819 80.9615 3.94985 8.66304 0.0688711 -30.1921 -12.1274 0.0 0.0 0.0 53.9724 -28.9303 1.38846 -21.8656 0.268808 3.32436 23.4228 10.205 -3.15135 -3.37878 0.0 0.0 -0.0 0.0 -0.0 5.39227 -12.2091 -21.7001 -8.40122 -0.253662 -1.26323 40.4874 4.85009 4.97096 11.2048 -0.0 -0.0 0.0 0.0 0.0 
1001.27194196 562.698 -1725.63068987 -35.4236465281 54.2356836294 41.827124215 9.40893 -0.486492 -1.83665 9.41074 -0.368656 -1.86388 9.41879 -0.280157 -1.87921 9.41432 -0.573379 -1.81142 -22.6919 -18.1503 0.29699 -25.2466 -35.0648 -9.2225 -0.0 0.0 -0.0 10.2247 -11.7906 20.2962 -40.6023 2.33475 65.7006 4.18322 -64.2202 2.62586 26.2638 0.166641 -3.3216 2.83292 3.2237 20.554 -0.0 0.0 -0.0 1.04811 -17.5262 -3.66239 28.5551 -44.9555 -59.88 0.464954 12.9706 -0.0528543 84.2876 4.34143 8.83276 1.74198 -30.2428 -21.4835 0.0 0.0 0.0 53.7668 -29.0332 0.322976 -24.5802 0.213224 3.73718 28.3236 10.969 -3.7184 -6.15723 0.0 0.0 -0.0 0.0 -0.0 6.68548 -11.7404 -21.163 -12.6443 -0.310752 -1.91165 39.6732 11.0518 5.02377 10.939 -0.0 -0.0 0.0 0.0 0.0 
994.021319864 563.448 -1732.59390375 -37.2470645782 54.0473077231 43.3956356179 9.47499 -0.182238 -1.83568 9.47687 -0.0650799 -1.84355 9.47506 0.020467 -1.84458 9.47041 -0.271058 -1.82468 -21.3777 -18.8622 1.66591 -24.042 -37.0895 -7.96845 -0.0 0.0 -0.0 10.2722 -11.4341 20.4085 -39.3231 2.24789 64.7548 4.01412 -63.2841 2.47419 35.8416 -0.150823 -4.50226 2.74662 2.67147 19.7324 -0.0 0.0 -0.0 1.82299 -19.5602 -4.98233 29.2093 -46.3732 -57.9469 0.579118 16.0072 -0.0814274 83.0192 4.19095 8.77072 1.05368 -30.2158 -17.5588 0.0 0.0 0.0 53.1244 -29.2009 -0.708386 -23.5212 0.237235 3.57644 28.3127 8.37176 -3.70739 -1.12163 0.0 0.0 -0.0 0.0 -0.0 8.41865 -12.0598 -21.084 -14.1465 -0.319434 -2.14195 39.4216 10.6978 4.99293 13.5467 -0.0 -0.0 0.0 0.0 0.0 
979.9801903 566.424 -1743.71498287 -37.8687369997 55.1804491705 44.2623970322 9.60248 -0.143946 -1.61095 9.60393 -0.0411587 -1.61684 9.60204 0.0302736 -1.61708 9.59846 -0.225461 -1.60158 -21.5854 -17.8119 1.51006 -23.9376 -35.0023 -7.51451 -0.0 0.0 -0.0 10.5875 -11.5477 21.1041 -36.2909 0.905939 63.6851 3.3265 -58.7349 1.87226 41.8043 -0.446422 -5.20479 1.05071 11.6934 11.568 -0.0 0.0 -0.0 0.43247 -21.8524 -3.14954 24.6962 -45.5983 -62.3677 0.536354 14.8796 -0.0700394 84.1302 4.32268 8.82524 0.62196 -29.9134 -15.0677 0.0 0.0 0.0 52.9231 -30.313 -0.801307 -26.1659 0.171723 3.97698 25.7365 7.03921 -3.4157 8.59482 -0.0 -0.0 -0.0 0.0 -0.0 11.2509 -13.488 -19.8689 -21.3409 -0.277293 -3.24428 37.5692 11.9269 4.85636 17.5582 -0.0 -0.0 0.0 0.0 0.0 
967.920681826 569.422 -1753.56679702 -40.352548521 56.2057660281 47.1313482905 9.99342 -0.161498 -1.57887 9.99481 -0.0607158 -1.58595 9.9934 -0.00147996 -1.58711 9.98997 -0.252084 -1.56697 -23.1622 -17.7298 1.64934 -25.7574 -34.847 -7.92357 -0.0 0.0 -0.0 10.6573 -11.7114 21.2561 -31.8231 -1.49931 63.8276 2.68257 -53.0284 1.33849 51.3906 -1.07015 -6.25975 -2.10701 18.3079 -5.30041 -0.0 0.0 -0.0 0.73298 -22.2543 -3.6107 22.2147 -45.7531 -62.3162 0.541446 15.0145 -0.0713527 84.069 4.3154 8.8223 -0.296352 -28.9854 -9.71707 0.0 0.0 0.0 51.1618 -30.8734 -2.03585 -24.483 0.215551 3.72244 26.8401 3.68843 -3.54518 15.4786 -0.0 -0.0 -0.0 0.0 -0.0 12.5779 -13.9572 -19.9529 -22.6037 -0.255634 -3.43684 34.6685 13.2785 4.61277 24.3874 -0.0 -0.0 0.0 0.0 0.0 
